<svg width="117" height="117" viewBox="0 0 117 117" fill="none" xmlns="http://www.w3.org/2000/svg">
<circle cx="58.5" cy="58.5" r="54.5" stroke="white" stroke-width="8"/>
<path d="M100 57C100 51.7471 98.9266 46.5457 96.841 41.6927C94.7554 36.8396 91.6986 32.4301 87.8449 28.7157C83.9913 25.0014 79.4164 22.055 74.3814 20.0448C69.3463 18.0346 63.9499 17 58.5 17C53.0501 17 47.6536 18.0346 42.6186 20.0448C37.5836 22.055 33.0087 25.0014 29.1551 28.7157C25.3014 32.4301 22.2446 36.8396 20.159 41.6927C18.0734 46.5457 17 51.7471 17 57" stroke="white" stroke-width="8"/>
<circle cx="58.5" cy="61.5" r="8.5" fill="white"/>
<line x1="59.3019" y1="59.625" x2="70.0816" y2="33.4755" stroke="white" stroke-width="8"/>
</svg>

