<svg width="107" height="105" viewBox="0 0 107 105" fill="none" xmlns="http://www.w3.org/2000/svg">
<path d="M53.0802 23.9342C68.6852 23.9342 81.3342 36.5822 81.3342 52.1842C81.3342 67.7863 68.6862 80.4383 53.0802 80.4383C37.4792 80.4383 24.8302 67.7863 24.8302 52.1842C24.8302 36.5822 37.4792 23.9342 53.0802 23.9342Z" fill="#F8E53F"/>
<path d="M16.5042 56.8803C16.6692 56.7573 16.7612 56.5663 16.7612 56.3593V48.0163C16.7612 47.8103 16.6692 47.6192 16.5042 47.4922C16.3402 47.3662 16.1313 47.3252 15.9333 47.3792L0.43125 51.5523C-0.14375 51.7063 -0.14375 52.6643 0.43125 52.8223L15.9333 56.9943C16.1243 57.0443 16.3402 57.0033 16.5042 56.8803Z" fill="#F8E53F"/>
<path d="M106.195 51.5522L90.7002 47.3802C90.4982 47.3292 90.2903 47.3703 90.1253 47.4933C89.9613 47.6173 89.8723 47.8113 89.8723 48.0173V56.3603C89.8723 56.5663 89.9613 56.7573 90.1253 56.8813C90.2903 57.0083 90.4982 57.0453 90.7002 56.9943L106.195 52.8223C106.77 52.6643 106.77 51.7052 106.195 51.5522Z" fill="#F8E53F"/>
<path d="M57.2523 87.6142H48.9093C48.7013 87.6142 48.5053 87.7072 48.3893 87.8712C48.2593 88.0352 48.2183 88.2442 48.2733 88.4382L52.4413 103.941C52.5983 104.512 53.5603 104.512 53.7143 103.941L57.8853 88.4382C57.9343 88.2442 57.8933 88.0352 57.7693 87.8672C57.6493 87.7072 57.4573 87.6142 57.2523 87.6142Z" fill="#F8E53F"/>
<path d="M48.9122 16.7582H57.2562C57.4612 16.7582 57.6502 16.6663 57.7732 16.5023C57.8962 16.3373 57.9372 16.1293 57.8892 15.9303L53.7172 0.43125C53.5672 -0.14375 52.6022 -0.14375 52.4452 0.43125L48.2772 15.9303C48.2222 16.1253 48.2632 16.3373 48.3932 16.4983C48.5052 16.6633 48.7042 16.7582 48.9122 16.7582Z" fill="#F8E53F"/>
<path d="M25.0772 74.2852C24.9332 74.1382 24.7283 74.0732 24.5333 74.1002C24.3253 74.1232 24.1503 74.2462 24.0443 74.4212L16.0363 88.3352C15.7353 88.8462 16.4123 89.5262 16.9363 89.2322L30.8442 81.2202C31.0222 81.1172 31.1383 80.9402 31.1733 80.7382C31.1943 80.5332 31.1253 80.3342 30.9813 80.1872L25.0772 74.2852Z" fill="#F8E53F"/>
<path d="M81.0773 30.0882C81.2213 30.2352 81.4263 30.3002 81.6323 30.2732C81.8303 30.2462 82.0052 30.1262 82.1172 29.9512L90.1253 16.0402C90.4203 15.5232 89.7423 14.8422 89.2223 15.1402L75.3112 23.1512C75.1402 23.2502 75.0172 23.4322 74.9902 23.6372C74.9632 23.8392 75.0343 24.0412 75.1783 24.1852L81.0773 30.0882Z" fill="#F8E53F"/>
<path d="M78.9143 74.4222C78.8113 74.2472 78.6342 74.1282 78.4352 74.1012C78.2262 74.0742 78.0242 74.1422 77.8802 74.2892L71.9813 80.1892C71.8373 80.3352 71.7653 80.5382 71.7933 80.7402C71.8233 80.9422 71.9373 81.1202 72.1183 81.2222L86.0253 89.2342C86.5423 89.5282 87.2233 88.8502 86.9283 88.3372L78.9143 74.4222Z" fill="#F8E53F"/>
<path d="M20.9023 30.0023C20.9873 30.1673 21.1553 30.2733 21.3473 30.2903C21.5393 30.3073 21.7373 30.2323 21.8773 30.0883L27.7803 24.1853C27.9243 24.0413 27.9993 23.8463 27.9793 23.6553C27.9723 23.4633 27.8633 23.2963 27.6983 23.2103L14.8383 16.2432C14.3593 15.9862 13.6743 16.6642 13.9353 17.1432L20.9023 30.0023Z" fill="#F8E53F"/>
</svg>

