<svg width="113" height="121" viewBox="0 0 113 121" fill="none" xmlns="http://www.w3.org/2000/svg">
<path d="M0 63L89 63M0 44L89 44C92.9556 44 96.8224 42.827 100.111 40.6294C103.4 38.4318 105.964 35.3082 107.478 31.6537C108.991 27.9992 109.387 23.9778 108.616 20.0982C107.844 16.2186 105.939 12.6549 103.142 9.85787C100.345 7.06082 96.7814 5.15601 92.9018 4.3843C89.0222 3.6126 85.0009 4.00867 81.3463 5.52242C77.6918 7.03617 74.5682 9.59962 72.3706 12.8886C70.173 16.1776 69 20.0444 69 24M0 83L55 83C58.3623 83 61.6491 83.997 64.4447 85.865C67.2403 87.733 69.4193 90.388 70.706 93.4944C71.9926 96.6007 72.3293 100.019 71.6733 103.317C71.0174 106.614 69.3983 109.643 67.0208 112.021C64.6433 114.398 61.6142 116.017 58.3165 116.673C55.0189 117.329 51.6007 116.993 48.4944 115.706C45.388 114.419 42.733 112.24 40.865 109.445C38.997 106.649 38 103.362 38 100" stroke="white" stroke-width="8"/>
</svg>

